<?xml version="1.0" standalone="no"?>
<!DOCTYPE svg PUBLIC "-//W3C//DTD SVG 20010904//EN"
 "http://www.w3.org/TR/2001/REC-SVG-20010904/DTD/svg10.dtd">
<svg version="1.0" xmlns="http://www.w3.org/2000/svg"
 width="167.000000pt" height="185.000000pt" viewBox="0 0 167.000000 185.000000"
 preserveAspectRatio="xMidYMid meet">

<g transform="translate(0.000000,185.000000) scale(0.100000,-0.100000)"
fill="#000000" stroke="none">
<path d="M326 689 c-26 -21 -28 -26 -23 -73 17 -159 135 -319 292 -397 167
-82 342 -79 507 8 117 61 219 184 258 311 28 91 27 126 -8 151 l-28 20 -11
-75 c-23 -156 -124 -292 -271 -362 -76 -36 -79 -37 -202 -37 -123 0 -126 1
-202 37 -147 70 -247 203 -271 363 l-12 77 -29 -23z"/>
</g>
</svg>
